<?xml version="1.0" encoding="utf-8"?>
<!-- Generator: Adobe Illustrator 16.0.0, SVG Export Plug-In . SVG Version: 6.00 Build 0)  -->
<!DOCTYPE svg PUBLIC "-//W3C//DTD SVG 1.1//EN" "http://www.w3.org/Graphics/SVG/1.1/DTD/svg11.dtd">
<svg version="1.1" id="Layer_1" xmlns="http://www.w3.org/2000/svg" xmlns:xlink="http://www.w3.org/1999/xlink" x="0px" y="0px"
	 width="60px" height="55px" viewBox="0 0 60 55" enable-background="new 0 0 60 55" xml:space="preserve">
<path d="M44,36.802v-4.381c2.387-1.386,3.998-3.961,3.998-6.92c0-4.418-3.58-8-7.998-8c-1.604,0-3.084,0.481-4.334,1.291
	c-1.232-5.315-5.973-9.29-11.666-9.29c-6.627,0-11.998,5.372-11.998,11.999c0,3.549,1.55,6.729,3.998,8.926v4.914
	c-4.776-2.769-7.998-7.922-7.998-13.84c0-8.836,7.162-15.998,15.998-15.998c6.005,0,11.229,3.312,13.966,8.203
	C38.631,13.592,39.303,13.5,40,13.5c6.627,0,11.998,5.373,11.998,12C51.998,30.723,48.656,35.152,44,36.802z M22.002,25.501
	c1.104,0,2,0.896,2,2v3.998c0,1.104-0.896,2-2,2c-1.105,0-2-0.896-2-2v-3.998C20.002,26.396,20.896,25.501,22.002,25.501z
	 M22.002,37.499c1.104,0,2,0.896,2,2v3.998c0,1.104-0.896,2-2,2c-1.105,0-2-0.896-2-2v-3.998
	C20.002,38.395,20.896,37.499,22.002,37.499z M30,29.499c1.104,0,2,0.896,2,2v4c0,1.104-0.896,2-2,2c-1.104,0-1.998-0.896-1.998-2
	v-4C28.002,30.396,28.896,29.499,30,29.499z M30,41.499c1.104,0,2,0.896,2,1.998v4c0,1.104-0.896,2-2,2
	c-1.104,0-1.998-0.896-1.998-2v-4C28.002,42.395,28.896,41.499,30,41.499z M38,25.501c1.104,0,2,0.896,2,2v3.998
	c0,1.104-0.896,2-2,2c-1.105,0-2-0.896-2-2v-3.998C36,26.396,36.895,25.501,38,25.501z M38,37.499c1.104,0,2,0.896,2,2v3.998
	c0,1.104-0.896,2-2,2c-1.105,0-2-0.896-2-2v-3.998C36,38.395,36.895,37.499,38,37.499z"/>
</svg>
