<?xml version="1.0" encoding="utf-8"?>
<!-- Generator: Adobe Illustrator 16.0.0, SVG Export Plug-In . SVG Version: 6.00 Build 0)  -->
<!DOCTYPE svg PUBLIC "-//W3C//DTD SVG 1.1//EN" "http://www.w3.org/Graphics/SVG/1.1/DTD/svg11.dtd">
<svg version="1.1" id="Layer_1" xmlns="http://www.w3.org/2000/svg" xmlns:xlink="http://www.w3.org/1999/xlink" x="0px" y="0px"
	 width="60px" height="55px" viewBox="0 0 60 55" enable-background="new 0 0 60 55" xml:space="preserve">
<path d="M49.998,39.5H10.003c-1.104,0-2-0.896-2-2s0.896-2,2-2h39.995c1.104,0,2,0.896,2,2S51.104,39.5,49.998,39.5z M49.998,31.5
	H10.003c-1.104,0-2-0.896-2-2s0.896-2,2-2h39.995c1.104,0,2,0.896,2,2S51.104,31.5,49.998,31.5z M39.999,19.502
	c-1.601,0-3.083,0.479-4.333,1.291c-1.232-5.317-5.975-9.291-11.665-9.291c-6.626,0-11.998,5.373-11.998,12h-4
	c0-8.835,7.163-15.999,15.998-15.999c6.004,0,11.229,3.312,13.965,8.204c0.664-0.113,1.337-0.205,2.033-0.205
	c5.222,0,9.651,3.342,11.301,8h-4.381C45.535,21.112,42.958,19.502,39.999,19.502z M10.003,43.498h39.995c1.104,0,2,0.896,2,2
	s-0.896,2-2,2H10.003c-1.104,0-2-0.896-2-2C8.003,44.396,8.898,43.498,10.003,43.498z"/>
</svg>
