<?xml version="1.0" encoding="utf-8"?>
<!-- Generator: Adobe Illustrator 16.0.0, SVG Export Plug-In . SVG Version: 6.00 Build 0)  -->
<!DOCTYPE svg PUBLIC "-//W3C//DTD SVG 1.1//EN" "http://www.w3.org/Graphics/SVG/1.1/DTD/svg11.dtd">
<svg version="1.1" id="Layer_1" xmlns="http://www.w3.org/2000/svg" xmlns:xlink="http://www.w3.org/1999/xlink" x="0px" y="0px"
	 width="60px" height="55px" viewBox="0 0 60 55" enable-background="new 0 0 60 55" xml:space="preserve">
<path d="M51.496,42.498c-1.104,0-1.998-0.895-1.998-2c0-1.104,0.895-2,1.998-2c1.105,0,2,0.896,2,2
	C53.496,41.604,52.602,42.498,51.496,42.498z M42.498,35.801V31.42c2.389-1.384,4-3.961,4-6.92c0-4.417-3.581-8-7.999-8
	c-1.601,0-3.083,0.48-4.334,1.291c-1.231-5.316-5.974-9.29-11.664-9.29c-6.627,0-11.999,5.372-11.999,11.998
	c0,3.549,1.551,6.728,4,8.924v4.916c-4.777-2.769-7.999-7.922-7.999-13.84c0-8.835,7.162-15.997,15.998-15.997
	c6.004,0,11.229,3.311,13.965,8.203c0.664-0.113,1.337-0.205,2.033-0.205c6.626,0,11.997,5.372,11.997,12
	C50.496,29.723,47.154,34.152,42.498,35.801z M9.503,43.498c1.104,0,1.999,0.896,1.999,2s-0.895,2-1.999,2c-1.104,0-2-0.896-2-2
	C7.503,44.393,8.398,43.498,9.503,43.498z M19.501,26.5c0-1.104-0.104-2,1-2s1,0.896,1,2v23.998h-2l0,0l0,0c0-2.209-1.79-4-3.999-4
	v-2c1.543,0,2.938,0.602,3.999,1.557V26.5z M28.5,40.498c-1.104,0-1-0.895-1-2V30.5c0-1.104-0.104-2,1-2s1,0.896,1,2v7.998
	C29.5,39.604,29.604,40.498,28.5,40.498z M28.5,44.498c1.104,0,2,0.896,2,2s-0.896,2-2,2s-2-0.896-2-2
	C26.5,45.393,27.396,44.498,28.5,44.498z M36.499,24.5c1.104,0,1,0.896,1,2v18.018c1.823-2.436,4.724-4.02,7.999-4.02v2
	c-4.418,0-7.999,3.582-7.999,8h-2c0-0.271,0.021-0.541,0.041-0.807c-0.054-0.334-0.041-0.744-0.041-1.193V26.5
	C35.499,25.396,35.395,24.5,36.499,24.5z"/>
</svg>
