<?xml version="1.0" encoding="utf-8"?>
<!-- Generator: Adobe Illustrator 16.0.0, SVG Export Plug-In . SVG Version: 6.00 Build 0)  -->
<!DOCTYPE svg PUBLIC "-//W3C//DTD SVG 1.1//EN" "http://www.w3.org/Graphics/SVG/1.1/DTD/svg11.dtd">
<svg version="1.1" id="Layer_1" xmlns="http://www.w3.org/2000/svg" xmlns:xlink="http://www.w3.org/1999/xlink" x="0px" y="0px"
	 width="60px" height="55px" viewBox="0 0 60 55" enable-background="new 0 0 60 55" xml:space="preserve">
<path d="M39.998,37.501c-0.281,0-0.65,0-1.062,0l3.584-4.412c3.182-1.057,5.479-4.053,5.479-7.588c0-4.417-3.582-7.998-8-7.998
	c-1.602,0-3.082,0.48-4.332,1.29c-1.232-5.315-5.974-9.29-11.666-9.29c-6.626,0-11.998,5.372-11.998,12
	c0,5.446,3.633,10.039,8.604,11.503l-1.349,3.777c-6.52-2.021-11.255-8.099-11.255-15.282c0-8.835,7.163-15.999,15.998-15.999
	c6.004,0,11.228,3.312,13.964,8.204c0.664-0.114,1.338-0.205,2.033-0.205c6.627,0,12,5.371,12,11.999S46.625,37.501,39.998,37.501z
	 M28,23.501h9.999l-6,10h7L26,49.499L29.6,37.501H23L28,23.501z"/>
</svg>
