<?xml version="1.0" encoding="utf-8"?>
<!-- Generator: Adobe Illustrator 16.0.0, SVG Export Plug-In . SVG Version: 6.00 Build 0)  -->
<!DOCTYPE svg PUBLIC "-//W3C//DTD SVG 1.1//EN" "http://www.w3.org/Graphics/SVG/1.1/DTD/svg11.dtd">
<svg version="1.1" id="Layer_1" xmlns="http://www.w3.org/2000/svg" xmlns:xlink="http://www.w3.org/1999/xlink" x="0px" y="0px"
	 width="60px" height="55px" viewBox="0 0 60 55" enable-background="new 0 0 60 55" xml:space="preserve">
<path d="M24.001,43.498c-8.836,0-15.999-7.162-15.999-15.998s7.163-15.998,15.999-15.998c6.004,0,11.229,3.312,13.965,8.203
	c0.664-0.113,1.338-0.205,2.033-0.205c6.627,0,11.998,5.373,11.998,12c0,6.625-5.371,11.998-11.998,11.998
	C37.224,43.498,27.198,43.498,24.001,43.498z M39.999,39.498c4.418,0,8-3.582,8-7.998s-3.582-8-8-8
	c-1.602,0-3.082,0.481-4.334,1.291c-1.23-5.315-5.973-9.289-11.666-9.289c-6.625,0-11.998,5.371-11.998,11.998
	s5.373,11.998,11.998,11.998C27.618,39.498,36.979,39.498,39.999,39.498z"/>
</svg>
