<?xml version="1.0" encoding="utf-8"?>
<!-- Generator: Adobe Illustrator 16.0.0, SVG Export Plug-In . SVG Version: 6.00 Build 0)  -->
<!DOCTYPE svg PUBLIC "-//W3C//DTD SVG 1.1//EN" "http://www.w3.org/Graphics/SVG/1.1/DTD/svg11.dtd">
<svg version="1.1" id="Layer_1" xmlns="http://www.w3.org/2000/svg" xmlns:xlink="http://www.w3.org/1999/xlink" x="0px" y="0px"
	 width="60px" height="55px" viewBox="0 0 60 55" enable-background="new 0 0 60 55" xml:space="preserve">
<path d="M44.001,36.801V32.42c2.389-1.385,4-3.961,4-6.92c0-4.418-3.582-8-8-8c-1.602,0-3.082,0.479-4.334,1.291
	C34.437,13.474,29.694,9.5,24.001,9.5c-6.625,0-11.998,5.373-11.998,11.998c0,3.549,1.552,6.729,4,8.924v4.916
	c-4.776-2.768-8-7.922-8-13.84c0-8.834,7.164-15.996,15.998-15.996c6.005,0,11.229,3.311,13.966,8.203
	c0.664-0.113,1.338-0.205,2.032-0.205c6.627,0,11.998,5.371,11.998,12C51.999,30.723,48.659,35.152,44.001,36.801z M22.003,25.5
	c1.104,0,2,0.896,2,2v15.998c0,1.105-0.896,2-2,2c-1.104,0-2-0.895-2-2V27.5C20.003,26.396,20.899,25.5,22.003,25.5z M30.003,29.5
	c1.104,0,2,0.896,2,2v15.998c0,1.104-0.896,2-2,2c-1.104,0-2-0.896-2-2V31.5C28.003,30.395,28.898,29.5,30.003,29.5z M38.001,25.5
	c1.104,0,2,0.896,2,2v15.998c0,1.105-0.896,2-2,2c-1.104,0-2-0.895-2-2V27.5C36.001,26.396,36.897,25.5,38.001,25.5z"/>
</svg>
