<?xml version="1.0" encoding="utf-8"?>
<!-- Generator: Adobe Illustrator 16.0.0, SVG Export Plug-In . SVG Version: 6.00 Build 0)  -->
<!DOCTYPE svg PUBLIC "-//W3C//DTD SVG 1.1//EN" "http://www.w3.org/Graphics/SVG/1.1/DTD/svg11.dtd">
<svg version="1.1" id="Layer_1" xmlns="http://www.w3.org/2000/svg" xmlns:xlink="http://www.w3.org/1999/xlink" x="0px" y="0px"
	 width="60px" height="55px" viewBox="0 0 60 55" enable-background="new 0 0 60 55" xml:space="preserve">
<path d="M42.997,27.5h-1v2c0,1.656-1.344,2.999-3,2.999h-3.999c-1.657,0-2.999-1.343-2.999-2.999l-0.99-3.959
	c-0.346-0.023-0.695-0.041-1.041-0.041c-0.332,0-0.66,0.02-0.98,0.047L27.999,29.5c0,1.656-1.343,2.999-3,2.999H21
	c-1.657,0-3-1.343-3-2.999v-2h-0.999c-0.553,0-1-0.447-1-1v-1c0-0.552,0.447-0.999,1-0.999h1.184c0.412-1.163,1.513-2,2.815-2h4.999
	c0.945,0,1.777,0.444,2.328,1.129c0.525-0.075,1.076-0.129,1.641-0.129c0.575,0,1.154,0.046,1.721,0.108
	c0.549-0.672,1.375-1.108,2.312-1.108h4.999c1.307,0,2.402,0.837,2.814,2h1.186c0.553,0,1,0.447,1,0.999v1
	C43.997,27.053,43.55,27.5,42.997,27.5z M24.339,24.16c-0.292-0.293-0.768-0.293-1.061,0l-3.182,3.182
	c-0.293,0.293-0.293,0.768,0,1.061s0.769,0.293,1.061,0l3.182-3.18C24.632,24.928,24.632,24.453,24.339,24.16z M38.338,24.16
	c-0.293-0.293-0.769-0.293-1.062,0l-3.182,3.182c-0.294,0.293-0.294,0.768,0,1.061c0.293,0.293,0.768,0.293,1.062,0l3.182-3.18
	C38.631,24.928,38.631,24.453,38.338,24.16z"/>
</svg>
