<?xml version="1.0" encoding="utf-8"?>
<!-- Generator: Adobe Illustrator 16.0.0, SVG Export Plug-In . SVG Version: 6.00 Build 0)  -->
<!DOCTYPE svg PUBLIC "-//W3C//DTD SVG 1.1//EN" "http://www.w3.org/Graphics/SVG/1.1/DTD/svg11.dtd">
<svg version="1.1" id="Layer_1" xmlns="http://www.w3.org/2000/svg" xmlns:xlink="http://www.w3.org/1999/xlink" x="0px" y="0px"
	 width="60px" height="55px" viewBox="0 0 60 55" enable-background="new 0 0 60 55" xml:space="preserve">
<path d="M9.176,34.498c-0.262-0.646-0.473-1.313-0.648-2h43.47c0,0.686-0.069,1.35-0.181,2H9.176z M16.263,14.5
	c2.293-1.271,4.93-1.998,7.737-1.998c2.806,0,5.437,0.729,7.728,1.998H16.263z M8.141,26.5c0.085-0.683,0.218-1.348,0.387-2h40.396
	c0.552,0.613,1.039,1.281,1.455,2H8.141z M9.176,22.5c0.281-0.692,0.613-1.358,0.984-2h27.682c0.04,0.068,0.084,0.135,0.123,0.205
	c0.664-0.113,1.339-0.205,2.033-0.205c2.451,0,4.729,0.738,6.627,2H9.176z M11.522,18.5c0.58-0.723,1.226-1.388,1.92-2h21.123
	c0.689,0.61,1.326,1.28,1.902,2H11.522z M51.815,30.498H8.141c-0.082-0.656-0.139-1.32-0.139-1.998H51.3
	C51.526,29.143,51.701,29.811,51.815,30.498z M51.3,36.498c-0.246,0.699-0.555,1.367-0.921,2H11.522
	c-0.504-0.629-0.957-1.299-1.362-2H51.3z M13.442,40.498h35.48c-0.68,0.758-1.447,1.436-2.299,2H16.263
	C15.246,41.936,14.308,41.258,13.442,40.498z"/>
</svg>
