<?xml version="1.0" encoding="utf-8"?>
<!-- Generator: Adobe Illustrator 16.0.0, SVG Export Plug-In . SVG Version: 6.00 Build 0)  -->
<!DOCTYPE svg PUBLIC "-//W3C//DTD SVG 1.1//EN" "http://www.w3.org/Graphics/SVG/1.1/DTD/svg11.dtd">
<svg version="1.1" id="Layer_1" xmlns="http://www.w3.org/2000/svg" xmlns:xlink="http://www.w3.org/1999/xlink" x="0px" y="0px"
	 width="60px" height="55px" viewBox="0 0 60 55" enable-background="new 0 0 60 55" xml:space="preserve">
<path d="M41.998,40.321v-4.082c3.447-0.891,6-4.012,6-7.738c0-4.416-3.582-7.998-7.999-7.998c-1.601,0-3.084,0.479-4.334,1.291
	c-1.231-5.317-5.974-9.291-11.664-9.291c-6.627,0-11.999,5.373-11.999,12c0,4.438,2.417,8.305,5.999,10.379v4.443
	c-5.86-2.375-9.998-8.111-9.998-14.824c0-8.836,7.162-16,15.998-16c6.004,0,11.229,3.312,13.965,8.205
	c0.664-0.113,1.336-0.205,2.033-0.205c6.626,0,11.998,5.373,11.998,11.998C51.997,34.446,47.671,39.366,41.998,40.321z
	 M23.072,34.501c0.553-0.957,1.775-1.283,2.732-0.73L28,35.036v-2.535c0-1.104,0.896-2,2-2s2,0.896,2,2v2.535l2.195-1.268
	c0.957-0.551,2.18-0.225,2.729,0.732c0.554,0.957,0.226,2.18-0.729,2.73l-2.196,1.27l2.196,1.268
	c0.955,0.553,1.283,1.775,0.729,2.732c-0.552,0.955-1.772,1.281-2.729,0.729L32,41.964v2.535c0,1.105-0.896,2-2,2s-2-0.895-2-2
	v-2.535l-2.195,1.27c-0.957,0.553-2.18,0.227-2.731-0.729c-0.552-0.957-0.226-2.182,0.731-2.732L26,38.501l-2.195-1.268
	C22.848,36.681,22.521,35.458,23.072,34.501z M30,40.501c1.104,0,2-0.896,2-2c0-1.104-0.896-2-2-2s-2,0.896-2,2
	S28.896,40.501,30,40.501z"/>
</svg>
