<?xml version="1.0" encoding="utf-8"?>
<!-- Generator: Adobe Illustrator 16.0.0, SVG Export Plug-In . SVG Version: 6.00 Build 0)  -->
<!DOCTYPE svg PUBLIC "-//W3C//DTD SVG 1.1//EN" "http://www.w3.org/Graphics/SVG/1.1/DTD/svg11.dtd">
<svg version="1.1" id="Layer_1" xmlns="http://www.w3.org/2000/svg" xmlns:xlink="http://www.w3.org/1999/xlink" x="0px" y="0px"
	 width="60px" height="55px" viewBox="0 0 60 55" enable-background="new 0 0 60 55" xml:space="preserve">
<path d="M51.997,29.499h-3.998c-1.104,0-2-0.896-2-1.999s0.896-2,2-2h3.998c1.104,0,2,0.896,2,2S53.104,29.499,51.997,29.499z
	 M44.143,16.188c-0.781,0.781-2.05,0.781-2.828,0c-0.78-0.78-0.78-2.047,0-2.828l2.828-2.827c0.778-0.781,2.047-0.781,2.828,0
	c0.778,0.78,0.778,2.047,0,2.827L44.143,16.188z M30.001,39.498c-6.627,0-12-5.372-12-11.998c0-6.627,5.372-11.999,12-11.999
	c6.627,0,11.998,5.372,11.998,11.999C41.999,34.126,36.628,39.498,30.001,39.498z M30.001,19.501c-4.418,0-8,3.581-8,7.999
	c0,4.417,3.583,7.999,8,7.999s7.998-3.582,7.998-7.999C37.999,23.082,34.419,19.501,30.001,19.501z M30.001,11.502
	c-1.104,0-2-0.896-2-2V5.503c0-1.104,0.896-2,2-2s2,0.896,2,2v3.999C32.001,10.605,31.104,11.502,30.001,11.502z M15.859,16.188
	l-2.827-2.828c-0.781-0.78-0.781-2.047,0-2.827c0.78-0.781,2.047-0.781,2.827,0l2.828,2.827c0.781,0.781,0.781,2.048,0,2.828
	C17.907,16.969,16.641,16.969,15.859,16.188z M14.002,27.5c0,1.104-0.896,1.999-2,1.999h-4c-1.104,0-1.999-0.896-1.999-1.999
	s0.896-2,1.999-2h4C13.107,25.5,14.002,26.396,14.002,27.5z M15.859,38.812c0.781-0.78,2.048-0.78,2.828,0
	c0.781,0.779,0.781,2.047,0,2.828l-2.828,2.826c-0.78,0.781-2.047,0.781-2.827,0c-0.781-0.779-0.781-2.047,0-2.826L15.859,38.812z
	 M30.001,43.498c1.104,0,2,0.895,2,1.999v4c0,1.104-0.896,2-2,2s-2-0.896-2-2v-4C28.001,44.393,28.896,43.498,30.001,43.498z
	 M44.143,38.812l2.828,2.828c0.778,0.779,0.778,2.047,0,2.826c-0.781,0.781-2.05,0.781-2.828,0l-2.828-2.826
	c-0.78-0.781-0.78-2.049,0-2.828C42.093,38.031,43.359,38.031,44.143,38.812z"/>
</svg>
