<?xml version="1.0" encoding="utf-8"?>
<!-- Generator: Adobe Illustrator 16.0.0, SVG Export Plug-In . SVG Version: 6.00 Build 0)  -->
<!DOCTYPE svg PUBLIC "-//W3C//DTD SVG 1.1//EN" "http://www.w3.org/Graphics/SVG/1.1/DTD/svg11.dtd">
<svg version="1.1" id="Layer_1" xmlns="http://www.w3.org/2000/svg" xmlns:xlink="http://www.w3.org/1999/xlink" x="0px" y="0px"
	 width="60px" height="55px" viewBox="0 0 60 55" enable-background="new 0 0 60 55" xml:space="preserve">
<path d="M48.997,13.501H11.002c-1.104,0-2-0.896-2-1.999c0-1.104,0.896-2,2-2h37.995c1.104,0,2,0.896,2,2
	C50.997,12.605,50.102,13.501,48.997,13.501z M13.002,17.501h29.996c1.104,0,2,0.896,2,2s-0.896,1.999-2,1.999H13.002
	c-1.104,0-2-0.896-2-1.999C11.002,18.396,11.898,17.501,13.002,17.501z M25,25.5h21.998c1.104,0,1.999,0.896,1.999,1.999
	c0,1.104-0.896,2-1.999,2H25c-1.104,0-1.999-0.896-1.999-2C23.001,26.396,23.896,25.5,25,25.5z M27,41.498h5.999
	c1.104,0,2,0.896,2,2s-0.896,2-2,2H27c-1.104,0-2-0.896-2-2S25.896,41.498,27,41.498z M28,35.498c0-1.104,0.896-1.998,2-1.998
	h13.998c1.104,0,2,0.896,2,1.998c0,1.105-0.896,2-2,2H30C28.896,37.498,28,36.604,28,35.498z"/>
</svg>
