<?xml version="1.0" encoding="utf-8"?>
<!-- Generator: Adobe Illustrator 16.0.0, SVG Export Plug-In . SVG Version: 6.00 Build 0)  -->
<!DOCTYPE svg PUBLIC "-//W3C//DTD SVG 1.1//EN" "http://www.w3.org/Graphics/SVG/1.1/DTD/svg11.dtd">
<svg version="1.1" id="Layer_1" xmlns="http://www.w3.org/2000/svg" xmlns:xlink="http://www.w3.org/1999/xlink" x="0px" y="0px"
	 width="60px" height="55px" viewBox="0 0 60 55" enable-background="new 0 0 60 55" xml:space="preserve">
<path d="M51.747,39.445v0.052h-0.75h-3c-1.104,0-2-0.896-2-2s0.896-1.998,2-1.998h3c1.104,0,2-0.896,2-2s-0.896-2-2-2s-2-0.896-2-2
	s0.896-2,2-2c0.139,0,0.271,0.014,0.4,0.041c3.123,0.211,5.6,2.782,5.6,5.959C56.997,36.557,54.706,39.074,51.747,39.445z
	 M40.999,27.499c-1.104,0-2-0.896-2-2s0.896-2,2-2c0.139,0,0.271,0.014,0.4,0.041c3.121,0.211,5.598,2.782,5.598,5.959
	c0,3.06-2.291,5.577-5.248,5.946v0.054h-0.75h-7.983c-4.015,0-11.36,0-14.015,0c-1.104,0-2,0.896-2,1.998c0,1.104,0.896,2,2,2
	h21.998h0.75v0.053c2.957,0.369,5.248,2.89,5.248,5.947c0,3.176-2.477,5.747-5.598,5.959c-0.131,0.024-0.267,0.041-0.4,0.041
	c-1.104,0-2-0.896-2-2s0.896-2,2-2s2-0.896,2-2s-0.896-2-2-2H19.001h-0.75v-0.052c-2.959-0.371-5.25-2.892-5.25-5.948
	c0-1.056,0.295-2.031,0.773-2.89C7.508,32.439,3.003,26.502,3.003,19.5c0-8.835,7.162-15.998,15.998-15.998
	c6.004,0,11.229,3.312,13.965,8.204c0.664-0.114,1.336-0.205,2.033-0.205c5.896,0,10.789,4.256,11.799,9.862
	c-1.396-0.996-3.051-1.646-4.85-1.815c-1.379-2.416-3.973-4.047-6.949-4.047c-1.601,0-3.084,0.479-4.334,1.29
	c-1.23-5.316-5.973-9.29-11.664-9.29c-6.627,0-11.998,5.372-11.998,11.999c0,6.625,5.371,11.999,11.998,11.999
	c2.599,0,8.151,0,12.198,0h9.8c1.104,0,2-0.896,2-2C42.999,28.393,42.104,27.499,40.999,27.499z"/>
</svg>
